<?xml version="1.0" encoding="UTF-8"?>
<svg id="Layer_2" data-name="Layer 2" xmlns="http://www.w3.org/2000/svg" viewBox="0 0 364.64 72.38">
  <defs>
    <style>
      .cls-1, .cls-2, .cls-3, .cls-4, .cls-5, .cls-6 {
        fill: none;
        stroke: #201d1e;
        stroke-linecap: square;
      }

      .cls-1, .cls-5 {
        stroke-width: 1.77px;
      }

      .cls-2, .cls-3, .cls-5 {
        stroke-linejoin: round;
      }

      .cls-2, .cls-4 {
        stroke-width: 1.68px;
      }

      .cls-3, .cls-6 {
        stroke-width: 1.72px;
      }

      .cls-7, .cls-8 {
        stroke-width: 0px;
      }

      .cls-8 {
        fill: #201d1e;
      }
    </style>
  </defs>
  <g id="Layer_1-2" data-name="Layer 1">
    <g>
      <path class="cls-7" d="M81.14,15.24h18.94c13.7,0,17.18,8.26,17.18,15s-3.55,15-17.18,15h-11.68v23.63h-7.25V15.24ZM88.39,38.86h9.56c5.75,0,11.5-1.35,11.5-8.63s-5.75-8.63-11.5-8.63h-9.56v17.25Z"/>
      <path class="cls-7" d="M126.73,14.98c2.74,0,4.96,2.2,5,4.94s-2.14,4.99-4.88,5.06-5.02-2.08-5.12-4.82c-.04-1.36.47-2.67,1.41-3.65s2.24-1.53,3.59-1.54ZM123.39,32.96h6.74v35.9h-6.74v-35.9Z"/>
      <path class="cls-7" d="M137.92,32.96h6.81v5.54h.16c2.38-4.24,6.96-6.74,11.81-6.45,6.97,0,12.95,4.17,12.95,13.7v23.11h-6.74v-21.19c0-6.76-3.86-9.25-8.19-9.25-5.67,0-10,3.63-10,11.97v18.47h-6.81v-35.9Z"/>
      <path class="cls-7" d="M182.14,53.42c0,6.27,5.83,10.36,12.12,10.36,3.95-.11,7.61-2.11,9.84-5.36l5.18,3.94c-3.76,4.96-9.74,7.74-15.96,7.41-11.37,0-18.47-8.16-18.47-18.86-.2-4.99,1.67-9.85,5.16-13.42s8.31-5.54,13.31-5.44c12.64,0,17.49,9.69,17.49,18.94v2.44h-28.68ZM203.7,47.95c-.16-5.98-3.5-10.36-10.36-10.36-5.87-.04-10.76,4.5-11.14,10.36h21.5Z"/>
      <path class="cls-7" d="M241.75,42.51c-2.22-2.62-5.5-4.1-8.94-4.02-7.41,0-11.22,5.98-11.22,12.72-.19,3.19.96,6.31,3.16,8.62,2.2,2.31,5.26,3.61,8.45,3.58,3.37.11,6.6-1.38,8.7-4.02l4.84,4.79c-3.52,3.73-8.5,5.75-13.63,5.52-5.04.25-9.95-1.63-13.53-5.19-3.58-3.56-5.48-8.47-5.25-13.51-.23-5.06,1.67-9.99,5.24-13.58s8.48-5.54,13.54-5.35c5.19-.13,10.19,1.93,13.78,5.67l-5.16,4.77Z"/>
      <path class="cls-7" d="M266.91,32.05c10.37.17,18.66,8.69,18.55,19.06s-8.59,18.71-18.96,18.65c-10.37-.06-18.76-8.48-18.76-18.86,0-5.06,2.03-9.9,5.63-13.45,3.6-3.55,8.48-5.5,13.54-5.41ZM266.91,63.42c7.25,0,11.81-5.18,11.81-12.51s-4.56-12.49-11.81-12.49-11.84,5.18-11.84,12.49,4.56,12.51,11.84,12.51Z"/>
      <path class="cls-7" d="M291.51,32.96h6.81v5.54c2.38-4.24,6.98-6.75,11.84-6.45,6.97,0,12.95,4.17,12.95,13.7v23.11h-6.81v-21.19c0-6.76-3.86-9.25-8.16-9.25-5.7,0-10,3.63-10,11.97v18.47h-6.63v-35.9Z"/>
      <path class="cls-7" d="M335.81,53.42c0,6.27,5.83,10.36,12.12,10.36,3.95-.13,7.6-2.12,9.84-5.36l5.18,3.94c-3.77,4.92-9.72,7.66-15.91,7.33-11.35,0-18.47-8.16-18.47-18.86-.2-5.01,1.68-9.87,5.19-13.45s8.35-5.53,13.36-5.41c12.67,0,17.51,9.69,17.51,18.94v2.44l-28.83.08ZM357.31,47.95c-.16-5.98-3.47-10.36-10.36-10.36-5.88-.05-10.77,4.5-11.14,10.36h21.5Z"/>
      <path class="cls-1" d="M36.4,12.18l1.81-10.08"/>
      <path class="cls-5" d="M44.74,8.6l-6.32-7.72-8.6,5.03"/>
      <path class="cls-1" d="M28.84,55.18l1.76-10.08"/>
      <path class="cls-5" d="M37.18,51.58l-6.37-7.69-8.57,5.05"/>
      <path class="cls-1" d="M32.49,34.41l1.76-10.08"/>
      <path class="cls-5" d="M40.83,30.81l-6.35-7.67-8.57,5.03"/>
      <circle class="cls-8" cx="26.53" cy="68.16" r="4.22"/>
      <g>
        <path class="cls-4" d="M14.56,54.3l-7.75,5.39"/>
        <path class="cls-2" d="M15.03,63.03l-9.14-2.69.67-9.51"/>
        <path class="cls-4" d="M42.7,59.35l5.39,7.77"/>
        <path class="cls-2" d="M39.23,67.38l9.51.65,2.69-9.09"/>
        <path class="cls-6" d="M51.53,43.58l9.48,1.71"/>
        <path class="cls-3" d="M54.79,51.89l7.36-6.4-4.64-8.52"/>
        <path class="cls-6" d="M48.76,24.77l8.45-4.66"/>
        <path class="cls-3" d="M49.22,15.83l8.99,3.73-1.68,9.56"/>
        <path class="cls-6" d="M11.51,36.53l-9.51-1.66"/>
        <path class="cls-3" d="M5.57,43.21L.86,34.69l7.28-6.42"/>
        <path class="cls-6" d="M20.52,19.77l-6.35-7.25"/>
        <path class="cls-3" d="M23.14,11.25l-9.71.41-1.71,9.56"/>
      </g>
    </g>
  </g>
</svg>